<?xml version="1.0" standalone="no"?><!DOCTYPE svg PUBLIC "-//W3C//DTD SVG 1.1//EN" "http://www.w3.org/Graphics/SVG/1.1/DTD/svg11.dtd"><svg class="icon" width="32px" height="32.00px" viewBox="0 0 1024 1024" version="1.1" xmlns="http://www.w3.org/2000/svg"><path d="M512 837.985c-87.074 0-168.936-33.908-230.506-95.479S186.016 599.074 186.016 512c0-87.074 33.908-168.936 95.479-230.506S424.926 186.016 512 186.016c87.074 0 168.936 33.908 230.506 95.479S837.984 424.927 837.984 512c0 87.074-33.908 168.936-95.479 230.506S599.074 837.985 512 837.985zM512 232.016c-74.787 0-145.097 29.124-197.979 82.005C261.139 366.903 232.016 437.214 232.016 512c0 74.787 29.124 145.097 82.005 197.979 52.882 52.883 123.192 82.006 197.979 82.006 74.787 0 145.097-29.123 197.979-82.006 52.883-52.882 82.006-123.191 82.006-197.979 0-74.787-29.123-145.097-82.006-197.979C657.097 261.139 586.787 232.016 512 232.016z" fill="#5c9dff" /><path d="M377.172 430.858c-5.144-82.121 41.773-130.684 110.874-142.438 44.086-7.498 85.08 0.613 120.669 30.121 43.52 36.091 53.824 115.059 11.734 159.4-16.419 17.298-32.776 34.716-50.145 51.038-25.028 23.521-37.03 51.896-35.728 86.08 0.101 2.697 0.011 5.4 0.011 8.781-18.225 0-35.641 0-53.985 0-1.332-36.631 3.398-71.252 28.52-99.887 20.289-23.125 41.343-45.581 61.979-68.403 18.415-20.366 20.921-44.703 15.452-70.005-6.345-29.348-30.224-49.348-60.183-51.457-10.961-0.771-22.284-1.042-33.044 0.791-33.491 5.714-54.33 28.322-60.022 63.903-1.676 10.478-2.388 21.11-3.585 32.076C411.992 430.858 394.561 430.858 377.172 430.858z" fill="#5c9dff" /><path d="M538.12 738.207c-19.842 0-39.032 0-58.861 0 0-20.826 0-41.266 0-62.26 19.674 0 38.854 0 58.861 0C538.12 696.424 538.12 716.856 538.12 738.207z" fill="#5c9dff" /></svg>