<?xml version="1.0" standalone="no"?><!DOCTYPE svg PUBLIC "-//W3C//DTD SVG 1.1//EN" "http://www.w3.org/Graphics/SVG/1.1/DTD/svg11.dtd"><svg t="1643340470849" class="icon" viewBox="0 0 1024 1024" version="1.1" xmlns="http://www.w3.org/2000/svg" p-id="6867" xmlns:xlink="http://www.w3.org/1999/xlink" width="200" height="200"><defs><style type="text/css"></style></defs><path d="M283.234037 299.574483c0-9.026451 7.313974-16.340425 16.340425-16.340425s16.340425 7.313974 16.340425 16.340425V991.31915h305.02127v-179.744677c0-9.026451 7.313974-16.340425 16.340425-16.340426H817.021259V32.680872H315.914887v201.531911c0 9.026451-7.313974 16.340425-16.340425 16.340425s-16.340425-7.313974-16.340425-16.340425V32.680872H119.829785v168.85106h38.127658C184.986685 201.531932 206.978719 223.523966 206.978719 250.553208s-21.992034 49.021276-49.021276 49.021275H119.829785v163.404252h38.127658c27.029242 0 49.021276 21.992034 49.021276 49.021276s-21.992034 49.021276-49.021276 49.021275H119.829785v163.404252h38.127658c27.029242 0 49.021276 21.992034 49.021276 49.021276s-21.992034 49.021276-49.021276 49.021275H119.829785V991.31915h163.404252V299.574483z" fill="#FFFFFF" p-id="6868"></path><path d="M985.872319 991.31915h5.446809V32.680872h-5.446809a16.338246 16.338246 0 0 1-16.340425-16.340425h-32.68085v991.319128h32.68085c0-9.026451 7.313974-16.340425 16.340425-16.340425z" fill="#98D9D5" p-id="6869"></path><path d="M729.713278 991.31915H904.170194V32.680872h-5.446809a16.338246 16.338246 0 0 1-16.340425-16.340425h-32.68085v795.234026c0 0.54686-0.028323 1.09154-0.082792 1.631863-0.039217 0.400885-0.108936 0.793055-0.176476 1.185226-0.023966 0.132902-0.03486 0.267983-0.061005 0.400885a15.810995 15.810995 0 0 1-0.350774 1.39874c-0.013072 0.045753-0.021787 0.098043-0.037039 0.143796a15.355642 15.355642 0 0 1-0.492391 1.374775c-0.01743 0.043574-0.028323 0.087149-0.045753 0.128544a15.828425 15.828425 0 0 1-0.588255 1.244051c-0.03486 0.065362-0.063183 0.13726-0.098043 0.202622-0.198264 0.370383-0.418315 0.723336-0.642723 1.07411-0.063183 0.100221-0.117651 0.2048-0.183013 0.302843-0.215694 0.322451-0.453174 0.627472-0.690655 0.934672-0.091506 0.117651-0.16994 0.23966-0.263626 0.352953-0.261447 0.318094-0.544681 0.618757-0.830094 0.917243-0.082791 0.087149-0.154689 0.180834-0.239659 0.265804L660.386301 1007.659575h52.984373a16.340425 16.340425 0 0 1 16.342604-16.340425z" fill="#C1E8E6" p-id="6870"></path><path d="M653.617007 827.914898v140.296712L793.913719 827.914898z" fill="#98D9D5" p-id="6871"></path><path d="M299.574462 283.234058a16.338246 16.338246 0 0 0-16.340425 16.340425V991.31915h32.68085V299.574483c0-9.026451-7.313974-16.340425-16.340425-16.340425zM299.574462 250.553208c9.026451 0 16.340425-7.313974 16.340425-16.340425V32.680872h-32.68085v201.531911c0 9.026451 7.313974 16.340425 16.340425 16.340425z" fill="#F2484B" p-id="6872"></path><path d="M920.510619 0.000022h-21.787234c-9.026451 0-16.340425 7.313974-16.340425 16.340425s7.313974 16.340425 16.340425 16.340425h5.446809v958.638278h-174.456916c-9.026451 0-16.340425 7.313974-16.340425 16.340425s7.313974 16.340425 16.340425 16.340425H920.510619c9.026451 0 16.340425-7.313974 16.340425-16.340425V16.340447c0-9.026451-7.313974-16.340425-16.340425-16.340425zM1007.659553 0.000022h-21.787234c-9.026451 0-16.340425 7.313974-16.340425 16.340425s7.313974 16.340425 16.340425 16.340425h5.446809v958.638278h-5.446809c-9.026451 0-16.340425 7.313974-16.340425 16.340425s7.313974 16.340425 16.340425 16.340425h21.787234c9.026451 0 16.340425-7.313974 16.340425-16.340425V16.340447c0-9.026451-7.313974-16.340425-16.340425-16.340425z" fill="#082947" p-id="6873"></path><path d="M103.278023 789.787239c0.069719 0 0.139438-0.010894 0.211337-0.010894s0.139438 0.010894 0.211336 0.010894H157.957443c9.0112 0 16.340425-7.329225 16.340426-16.340425s-7.329225-16.340425-16.340426-16.340425h-108.936167c-9.0112 0-16.340425 7.329225-16.340426 16.340425s7.329225 16.340425 16.340426 16.340425h54.256747zM157.957443 528.340436c9.0112 0 16.340425-7.329225 16.340426-16.340425s-7.329225-16.340425-16.340426-16.340425h-108.936167c-9.0112 0-16.340425 7.329225-16.340426 16.340425s7.329225 16.340425 16.340426 16.340425h108.936167zM157.957443 266.893633c9.0112 0 16.340425-7.329225 16.340426-16.340425s-7.329225-16.340425-16.340426-16.340425h-108.936167c-9.0112 0-16.340425 7.329225-16.340426 16.340425s7.329225 16.340425 16.340426 16.340425h108.936167z" fill="#FFCC75" p-id="6874"></path><path d="M845.157293 822.864617c0.285413-0.298485 0.568647-0.59697 0.830093-0.917242 0.093685-0.113294 0.174298-0.235302 0.263626-0.352954 0.237481-0.3072 0.474962-0.610043 0.690655-0.934672 0.065362-0.098043 0.11983-0.202621 0.183013-0.302843 0.224409-0.350774 0.44446-0.703728 0.642723-1.07411 0.03486-0.065362 0.063183-0.13726 0.098043-0.202621 0.211336-0.407421 0.411779-0.8192 0.588255-1.244051 0.01743-0.041396 0.030502-0.08497 0.045753-0.128545 0.183013-0.448817 0.348596-0.90417 0.492392-1.374775 0.015251-0.045753 0.023966-0.098043 0.037038-0.143795 0.135081-0.459711 0.257089-0.923779 0.350775-1.398741 0.026145-0.132902 0.037038-0.267983 0.061004-0.400885 0.06754-0.39217 0.13726-0.78434 0.176476-1.185225 0.054468-0.540323 0.082791-1.085004 0.082792-1.631864V16.340447c0-9.026451-7.313974-16.340425-16.340425-16.340425h-729.872325A16.338246 16.338246 0 0 0 87.148934 16.340447v185.191485H49.021276C21.992034 201.531932 0 223.523966 0 250.553208s21.992034 49.021276 49.021276 49.021275H87.148934v163.404252H49.021276C21.992034 462.978735 0 484.970769 0 512.000011s21.992034 49.021276 49.021276 49.021275H87.148934v163.404252H49.021276C21.992034 724.425538 0 746.417572 0 773.446814s21.992034 49.021276 49.021276 49.021275H87.148934v185.191486c0 9.026451 7.313974 16.340425 16.340426 16.340425h533.787222c0.54686 0 1.09154-0.028323 1.631864-0.082791 0.411779-0.041396 0.814843-0.111115 1.215728-0.180835 0.122009-0.021787 0.246196-0.032681 0.368204-0.054468 0.474962-0.095864 0.941208-0.217872 1.400919-0.352953 0.047932-0.013072 0.095864-0.021787 0.143796-0.037038 0.466247-0.141617 0.919421-0.309379 1.366059-0.490213 0.045753-0.019609 0.091506-0.032681 0.13726-0.05011a16.580085 16.580085 0 0 0 1.241872-0.586077c0.06754-0.037038 0.13726-0.063183 0.2048-0.100221 0.372562-0.200443 0.729872-0.420494 1.085004-0.64926 0.095864-0.061004 0.196085-0.113294 0.289771-0.176476 0.32463-0.217872 0.63183-0.455353 0.939029-0.692835 0.115472-0.089328 0.237481-0.167762 0.348596-0.261446 0.318094-0.261447 0.618757-0.544681 0.917243-0.830094 0.087149-0.082791 0.180834-0.154689 0.265804-0.239659l196.085102-196.085103c0.08497-0.08497 0.156868-0.178655 0.23966-0.265804zM32.68085 773.446814c0-9.0112 7.329225-16.340425 16.340426-16.340425h108.936167c9.0112 0 16.340425 7.329225 16.340426 16.340425s-7.329225 16.340425-16.340426 16.340425H103.700696c-0.069719 0-0.139438-0.010894-0.211336-0.010894s-0.139438 0.010894-0.211337 0.010894H49.021276c-9.0112 0-16.340425-7.329225-16.340426-16.340425z m87.148935 49.021275h38.127658c27.029242 0 49.021276-21.992034 49.021276-49.021275s-21.992034-49.021276-49.021276-49.021276H119.829785v-163.404252h38.127658c27.029242 0 49.021276-21.992034 49.021276-49.021275s-21.992034-49.021276-49.021276-49.021276H119.829785v-163.404252h38.127658c27.029242 0 49.021276-21.992034 49.021276-49.021275S184.986685 201.531932 157.957443 201.531932H119.829785V32.680872h697.191474v762.553175h-179.744677a16.338246 16.338246 0 0 0-16.340425 16.340426V991.31915H119.829785v-168.851061zM32.68085 512.000011c0-9.0112 7.329225-16.340425 16.340426-16.340425h108.936167c9.0112 0 16.340425 7.329225 16.340426 16.340425s-7.329225 16.340425-16.340426 16.340425h-108.936167c-9.0112 0-16.340425-7.329225-16.340426-16.340425z m0-261.446803c0-9.0112 7.329225-16.340425 16.340426-16.340425h108.936167c9.0112 0 16.340425 7.329225 16.340426 16.340425s-7.329225 16.340425-16.340426 16.340425h-108.936167c-9.0112 0-16.340425-7.329225-16.340426-16.340425z m620.936157 577.36169h140.296712L653.617007 968.21161V827.914898z" fill="#082947" p-id="6875"></path></svg>